<mxfile host="app.diagrams.net" modified="2023-10-22T10:59:11.332Z" agent="Mozilla/5.0 (Windows NT 10.0; Win64; x64) AppleWebKit/537.36 (KHTML, like Gecko) Chrome/118.0.0.0 Safari/537.36" etag="1P8k_fJ8RpB-o4o9q5ur" version="22.0.6" type="device">
  <diagram name="Page-1" id="-FKy5Z1G83qZWSf9P08G">
    <mxGraphModel dx="3893" dy="2313" grid="1" gridSize="10" guides="1" tooltips="1" connect="1" arrows="1" fold="1" page="0" pageScale="1" pageWidth="827" pageHeight="1169" math="0" shadow="0">
      <root>
        <mxCell id="0" />
        <mxCell id="1" parent="0" />
        <mxCell id="zmb7tuKz2PFm1udy3gRj-21" value="" style="rounded=0;whiteSpace=wrap;html=1;dashed=1;" parent="1" vertex="1">
          <mxGeometry x="220" y="-90" width="2350" height="1690" as="geometry" />
        </mxCell>
        <mxCell id="zmb7tuKz2PFm1udy3gRj-23" value="" style="rounded=0;whiteSpace=wrap;html=1;" parent="1" vertex="1">
          <mxGeometry x="240" y="-30" width="2320" height="1620" as="geometry" />
        </mxCell>
        <mxCell id="zmb7tuKz2PFm1udy3gRj-11" value="" style="rounded=0;whiteSpace=wrap;html=1;dashed=1;" parent="1" vertex="1">
          <mxGeometry x="-250" y="-50" width="420" height="610" as="geometry" />
        </mxCell>
        <mxCell id="zmb7tuKz2PFm1udy3gRj-1" value="" style="rounded=0;whiteSpace=wrap;html=1;" parent="1" vertex="1">
          <mxGeometry x="-220" y="10" width="360" height="240" as="geometry" />
        </mxCell>
        <mxCell id="zmb7tuKz2PFm1udy3gRj-4" value="Mobile App" style="text;html=1;strokeColor=none;fillColor=none;align=center;verticalAlign=middle;whiteSpace=wrap;rounded=0;fontSize=22;" parent="1" vertex="1">
          <mxGeometry x="-125" y="30" width="170" height="30" as="geometry" />
        </mxCell>
        <mxCell id="zmb7tuKz2PFm1udy3gRj-5" value="Folks.MobileClient" style="text;html=1;strokeColor=none;fillColor=none;align=center;verticalAlign=middle;whiteSpace=wrap;rounded=0;fontSize=22;" parent="1" vertex="1">
          <mxGeometry x="-125" y="80" width="170" height="30" as="geometry" />
        </mxCell>
        <mxCell id="zmb7tuKz2PFm1udy3gRj-6" value="react-native 0.72.6, expo 49.0.10, formic 2.4.5, react 18.2.0, typescript 5.2.2, react-native-paper 5.10.4, react-navigation 6.x, react-query 3.x" style="text;html=1;strokeColor=none;fillColor=none;align=center;verticalAlign=middle;whiteSpace=wrap;rounded=0;fontSize=18;" parent="1" vertex="1">
          <mxGeometry x="-210" y="170" width="340" height="30" as="geometry" />
        </mxCell>
        <mxCell id="zmb7tuKz2PFm1udy3gRj-8" value="" style="rounded=0;whiteSpace=wrap;html=1;" parent="1" vertex="1">
          <mxGeometry x="-220" y="290" width="360" height="240" as="geometry" />
        </mxCell>
        <mxCell id="zmb7tuKz2PFm1udy3gRj-9" value="Web App" style="text;html=1;strokeColor=none;fillColor=none;align=center;verticalAlign=middle;whiteSpace=wrap;rounded=0;fontSize=22;" parent="1" vertex="1">
          <mxGeometry x="-125" y="310" width="170" height="30" as="geometry" />
        </mxCell>
        <mxCell id="zmb7tuKz2PFm1udy3gRj-10" value="?" style="text;html=1;strokeColor=none;fillColor=none;align=center;verticalAlign=middle;whiteSpace=wrap;rounded=0;fontSize=22;" parent="1" vertex="1">
          <mxGeometry x="-125" y="395" width="170" height="30" as="geometry" />
        </mxCell>
        <mxCell id="zmb7tuKz2PFm1udy3gRj-12" value="Client Apps" style="text;html=1;strokeColor=none;fillColor=none;align=center;verticalAlign=middle;whiteSpace=wrap;rounded=0;fontSize=22;" parent="1" vertex="1">
          <mxGeometry x="-125" y="-40" width="170" height="30" as="geometry" />
        </mxCell>
        <mxCell id="zmb7tuKz2PFm1udy3gRj-13" value="" style="rounded=0;whiteSpace=wrap;html=1;" parent="1" vertex="1">
          <mxGeometry x="281" y="120" width="340" height="1330" as="geometry" />
        </mxCell>
        <mxCell id="zmb7tuKz2PFm1udy3gRj-14" value="Docker Container" style="text;html=1;strokeColor=none;fillColor=none;align=center;verticalAlign=middle;whiteSpace=wrap;rounded=0;fontSize=22;" parent="1" vertex="1">
          <mxGeometry x="346" y="130" width="210" height="30" as="geometry" />
        </mxCell>
        <mxCell id="zmb7tuKz2PFm1udy3gRj-15" value="" style="rounded=0;whiteSpace=wrap;html=1;" parent="1" vertex="1">
          <mxGeometry x="301" y="175" width="300" height="1255" as="geometry" />
        </mxCell>
        <mxCell id="zmb7tuKz2PFm1udy3gRj-16" value="Web Server Kestrel" style="text;html=1;strokeColor=none;fillColor=none;align=center;verticalAlign=middle;whiteSpace=wrap;rounded=0;fontSize=22;" parent="1" vertex="1">
          <mxGeometry x="346" y="180" width="210" height="30" as="geometry" />
        </mxCell>
        <mxCell id="zmb7tuKz2PFm1udy3gRj-17" value="" style="rounded=0;whiteSpace=wrap;html=1;" parent="1" vertex="1">
          <mxGeometry x="321" y="220" width="260" height="1190" as="geometry" />
        </mxCell>
        <mxCell id="zmb7tuKz2PFm1udy3gRj-18" value="Api Gateway / BFF" style="text;html=1;strokeColor=none;fillColor=none;align=center;verticalAlign=middle;whiteSpace=wrap;rounded=0;fontSize=22;" parent="1" vertex="1">
          <mxGeometry x="346" y="230" width="210" height="30" as="geometry" />
        </mxCell>
        <mxCell id="zmb7tuKz2PFm1udy3gRj-19" value="Folks.ApiGateway" style="text;html=1;strokeColor=none;fillColor=none;align=center;verticalAlign=middle;whiteSpace=wrap;rounded=0;fontSize=22;" parent="1" vertex="1">
          <mxGeometry x="346" y="280" width="210" height="30" as="geometry" />
        </mxCell>
        <mxCell id="zmb7tuKz2PFm1udy3gRj-20" value="ASP.NET 7, Ocelot 8" style="text;html=1;strokeColor=none;fillColor=none;align=center;verticalAlign=middle;whiteSpace=wrap;rounded=0;fontSize=18;" parent="1" vertex="1">
          <mxGeometry x="336" y="320" width="230" height="30" as="geometry" />
        </mxCell>
        <mxCell id="zmb7tuKz2PFm1udy3gRj-22" value="Backend infrastructure" style="text;html=1;strokeColor=none;fillColor=none;align=center;verticalAlign=middle;whiteSpace=wrap;rounded=0;fontSize=22;" parent="1" vertex="1">
          <mxGeometry x="240" y="-80" width="250" height="30" as="geometry" />
        </mxCell>
        <mxCell id="zmb7tuKz2PFm1udy3gRj-24" value="Docker Network" style="text;html=1;strokeColor=none;fillColor=none;align=center;verticalAlign=middle;whiteSpace=wrap;rounded=0;fontSize=22;" parent="1" vertex="1">
          <mxGeometry x="250" y="-20" width="180" height="30" as="geometry" />
        </mxCell>
        <mxCell id="zmb7tuKz2PFm1udy3gRj-25" value="" style="endArrow=none;startArrow=none;html=1;rounded=0;exitX=1;exitY=0.5;exitDx=0;exitDy=0;edgeStyle=orthogonalEdgeStyle;startFill=0;endFill=0;" parent="1" source="zmb7tuKz2PFm1udy3gRj-1" target="zmb7tuKz2PFm1udy3gRj-13" edge="1">
          <mxGeometry width="50" height="50" relative="1" as="geometry">
            <mxPoint x="480" y="320" as="sourcePoint" />
            <mxPoint x="530" y="270" as="targetPoint" />
            <Array as="points">
              <mxPoint x="200" y="130" />
              <mxPoint x="200" y="270" />
            </Array>
          </mxGeometry>
        </mxCell>
        <mxCell id="zmb7tuKz2PFm1udy3gRj-27" value="" style="endArrow=none;startArrow=none;html=1;rounded=0;exitX=1;exitY=0.5;exitDx=0;exitDy=0;edgeStyle=orthogonalEdgeStyle;startFill=0;endFill=0;" parent="1" source="zmb7tuKz2PFm1udy3gRj-8" target="zmb7tuKz2PFm1udy3gRj-13" edge="1">
          <mxGeometry width="50" height="50" relative="1" as="geometry">
            <mxPoint x="480" y="320" as="sourcePoint" />
            <mxPoint x="530" y="270" as="targetPoint" />
            <Array as="points">
              <mxPoint x="200" y="410" />
              <mxPoint x="200" y="327" />
            </Array>
          </mxGeometry>
        </mxCell>
        <mxCell id="E3wQsjzNkzeeDNMALOdF-1" value="" style="rounded=0;whiteSpace=wrap;html=1;" parent="1" vertex="1">
          <mxGeometry x="763" y="803.5" width="340" height="290" as="geometry" />
        </mxCell>
        <mxCell id="E3wQsjzNkzeeDNMALOdF-2" value="Docker Container" style="text;html=1;strokeColor=none;fillColor=none;align=center;verticalAlign=middle;whiteSpace=wrap;rounded=0;fontSize=22;" parent="1" vertex="1">
          <mxGeometry x="828" y="813.5" width="210" height="30" as="geometry" />
        </mxCell>
        <mxCell id="E3wQsjzNkzeeDNMALOdF-3" value="" style="rounded=0;whiteSpace=wrap;html=1;" parent="1" vertex="1">
          <mxGeometry x="783" y="858.5" width="300" height="215" as="geometry" />
        </mxCell>
        <mxCell id="E3wQsjzNkzeeDNMALOdF-4" value="Web Server Kestrel" style="text;html=1;strokeColor=none;fillColor=none;align=center;verticalAlign=middle;whiteSpace=wrap;rounded=0;fontSize=22;" parent="1" vertex="1">
          <mxGeometry x="828" y="863.5" width="210" height="30" as="geometry" />
        </mxCell>
        <mxCell id="E3wQsjzNkzeeDNMALOdF-5" value="" style="rounded=0;whiteSpace=wrap;html=1;" parent="1" vertex="1">
          <mxGeometry x="803" y="903.5" width="260" height="150" as="geometry" />
        </mxCell>
        <mxCell id="E3wQsjzNkzeeDNMALOdF-6" value="Identity Server" style="text;html=1;strokeColor=none;fillColor=none;align=center;verticalAlign=middle;whiteSpace=wrap;rounded=0;fontSize=22;" parent="1" vertex="1">
          <mxGeometry x="828" y="923.5" width="210" height="30" as="geometry" />
        </mxCell>
        <mxCell id="E3wQsjzNkzeeDNMALOdF-7" value="Folks.IdentityServer" style="text;html=1;strokeColor=none;fillColor=none;align=center;verticalAlign=middle;whiteSpace=wrap;rounded=0;fontSize=22;" parent="1" vertex="1">
          <mxGeometry x="833" y="973.5" width="210" height="30" as="geometry" />
        </mxCell>
        <mxCell id="E3wQsjzNkzeeDNMALOdF-8" value="ASP.NET 7, Identity Server 4" style="text;html=1;strokeColor=none;fillColor=none;align=center;verticalAlign=middle;whiteSpace=wrap;rounded=0;fontSize=18;" parent="1" vertex="1">
          <mxGeometry x="818" y="1013.5" width="240" height="30" as="geometry" />
        </mxCell>
        <mxCell id="E3wQsjzNkzeeDNMALOdF-9" value="" style="rounded=0;whiteSpace=wrap;html=1;" parent="1" vertex="1">
          <mxGeometry x="1210" y="50" width="280" height="170" as="geometry" />
        </mxCell>
        <mxCell id="E3wQsjzNkzeeDNMALOdF-10" value="Docker Container" style="text;html=1;strokeColor=none;fillColor=none;align=center;verticalAlign=middle;whiteSpace=wrap;rounded=0;fontSize=22;" parent="1" vertex="1">
          <mxGeometry x="1245" y="60" width="210" height="30" as="geometry" />
        </mxCell>
        <mxCell id="E3wQsjzNkzeeDNMALOdF-14" value="" style="rounded=0;whiteSpace=wrap;html=1;" parent="1" vertex="1">
          <mxGeometry x="763" y="50" width="340" height="316" as="geometry" />
        </mxCell>
        <mxCell id="E3wQsjzNkzeeDNMALOdF-15" value="Docker Container" style="text;html=1;strokeColor=none;fillColor=none;align=center;verticalAlign=middle;whiteSpace=wrap;rounded=0;fontSize=22;" parent="1" vertex="1">
          <mxGeometry x="828" y="60" width="210" height="30" as="geometry" />
        </mxCell>
        <mxCell id="E3wQsjzNkzeeDNMALOdF-16" value="" style="rounded=0;whiteSpace=wrap;html=1;" parent="1" vertex="1">
          <mxGeometry x="783" y="105" width="300" height="251" as="geometry" />
        </mxCell>
        <mxCell id="E3wQsjzNkzeeDNMALOdF-17" value="Web Server Kestrel" style="text;html=1;strokeColor=none;fillColor=none;align=center;verticalAlign=middle;whiteSpace=wrap;rounded=0;fontSize=22;" parent="1" vertex="1">
          <mxGeometry x="828" y="110" width="210" height="30" as="geometry" />
        </mxCell>
        <mxCell id="NiYd0etIWsIruV5Dij74-1" value="" style="rounded=0;whiteSpace=wrap;html=1;" vertex="1" parent="1">
          <mxGeometry x="803" y="156" width="260" height="190" as="geometry" />
        </mxCell>
        <mxCell id="NiYd0etIWsIruV5Dij74-3" value="API" style="text;html=1;strokeColor=none;fillColor=none;align=center;verticalAlign=middle;whiteSpace=wrap;rounded=0;fontSize=22;" vertex="1" parent="1">
          <mxGeometry x="858" y="166" width="150" height="30" as="geometry" />
        </mxCell>
        <mxCell id="NiYd0etIWsIruV5Dij74-4" value="Folks.ChatService.Api" style="text;html=1;strokeColor=none;fillColor=none;align=center;verticalAlign=middle;whiteSpace=wrap;rounded=0;fontSize=22;" vertex="1" parent="1">
          <mxGeometry x="863" y="203" width="150" height="30" as="geometry" />
        </mxCell>
        <mxCell id="NiYd0etIWsIruV5Dij74-14" value="ASP.NET 7, FluentValidation 11, EF 7, MassTransit 7, AutoMapper 12, MediatR 11, SignalR 2" style="text;html=1;strokeColor=none;fillColor=none;align=center;verticalAlign=middle;whiteSpace=wrap;rounded=0;fontSize=18;" vertex="1" parent="1">
          <mxGeometry x="807" y="236" width="250" height="110" as="geometry" />
        </mxCell>
        <mxCell id="NiYd0etIWsIruV5Dij74-15" value="" style="rounded=0;whiteSpace=wrap;html=1;" vertex="1" parent="1">
          <mxGeometry x="910" y="425" width="340" height="320" as="geometry" />
        </mxCell>
        <mxCell id="NiYd0etIWsIruV5Dij74-16" value="Docker Container" style="text;html=1;strokeColor=none;fillColor=none;align=center;verticalAlign=middle;whiteSpace=wrap;rounded=0;fontSize=22;" vertex="1" parent="1">
          <mxGeometry x="975" y="435" width="210" height="30" as="geometry" />
        </mxCell>
        <mxCell id="NiYd0etIWsIruV5Dij74-17" value="" style="rounded=0;whiteSpace=wrap;html=1;" vertex="1" parent="1">
          <mxGeometry x="930" y="480" width="300" height="255" as="geometry" />
        </mxCell>
        <mxCell id="NiYd0etIWsIruV5Dij74-18" value="Web Server Kestrel" style="text;html=1;strokeColor=none;fillColor=none;align=center;verticalAlign=middle;whiteSpace=wrap;rounded=0;fontSize=22;" vertex="1" parent="1">
          <mxGeometry x="975" y="485" width="210" height="30" as="geometry" />
        </mxCell>
        <mxCell id="NiYd0etIWsIruV5Dij74-19" value="" style="rounded=0;whiteSpace=wrap;html=1;" vertex="1" parent="1">
          <mxGeometry x="950" y="531" width="260" height="194" as="geometry" />
        </mxCell>
        <mxCell id="NiYd0etIWsIruV5Dij74-20" value="API" style="text;html=1;strokeColor=none;fillColor=none;align=center;verticalAlign=middle;whiteSpace=wrap;rounded=0;fontSize=22;" vertex="1" parent="1">
          <mxGeometry x="1005" y="541" width="150" height="30" as="geometry" />
        </mxCell>
        <mxCell id="NiYd0etIWsIruV5Dij74-21" value="Folks.CallService.Api" style="text;html=1;strokeColor=none;fillColor=none;align=center;verticalAlign=middle;whiteSpace=wrap;rounded=0;fontSize=22;" vertex="1" parent="1">
          <mxGeometry x="1005" y="570" width="150" height="30" as="geometry" />
        </mxCell>
        <mxCell id="NiYd0etIWsIruV5Dij74-22" value="ASP.NET 7, FluentValidation 11, EF 7, MassTransit 7, AutoMapper 12, MediatR 11, SignalR 2, StackExchangeRedis 7" style="text;html=1;strokeColor=none;fillColor=none;align=center;verticalAlign=middle;whiteSpace=wrap;rounded=0;fontSize=18;" vertex="1" parent="1">
          <mxGeometry x="954" y="611" width="250" height="110" as="geometry" />
        </mxCell>
        <mxCell id="NiYd0etIWsIruV5Dij74-23" value="" style="rounded=0;whiteSpace=wrap;html=1;" vertex="1" parent="1">
          <mxGeometry x="845" y="1171" width="340" height="331" as="geometry" />
        </mxCell>
        <mxCell id="NiYd0etIWsIruV5Dij74-24" value="Docker Container" style="text;html=1;strokeColor=none;fillColor=none;align=center;verticalAlign=middle;whiteSpace=wrap;rounded=0;fontSize=22;" vertex="1" parent="1">
          <mxGeometry x="910" y="1181" width="210" height="30" as="geometry" />
        </mxCell>
        <mxCell id="NiYd0etIWsIruV5Dij74-25" value="" style="rounded=0;whiteSpace=wrap;html=1;" vertex="1" parent="1">
          <mxGeometry x="865" y="1226" width="300" height="266" as="geometry" />
        </mxCell>
        <mxCell id="NiYd0etIWsIruV5Dij74-26" value="Web Server Kestrel" style="text;html=1;strokeColor=none;fillColor=none;align=center;verticalAlign=middle;whiteSpace=wrap;rounded=0;fontSize=22;" vertex="1" parent="1">
          <mxGeometry x="910" y="1231" width="210" height="30" as="geometry" />
        </mxCell>
        <mxCell id="NiYd0etIWsIruV5Dij74-27" value="" style="rounded=0;whiteSpace=wrap;html=1;" vertex="1" parent="1">
          <mxGeometry x="877" y="1277" width="280" height="205" as="geometry" />
        </mxCell>
        <mxCell id="NiYd0etIWsIruV5Dij74-28" value="API" style="text;html=1;strokeColor=none;fillColor=none;align=center;verticalAlign=middle;whiteSpace=wrap;rounded=0;fontSize=22;" vertex="1" parent="1">
          <mxGeometry x="940" y="1287" width="150" height="30" as="geometry" />
        </mxCell>
        <mxCell id="NiYd0etIWsIruV5Dij74-29" value="Folks.PresenceService.Api" style="text;html=1;strokeColor=none;fillColor=none;align=center;verticalAlign=middle;whiteSpace=wrap;rounded=0;fontSize=22;" vertex="1" parent="1">
          <mxGeometry x="945" y="1324" width="150" height="30" as="geometry" />
        </mxCell>
        <mxCell id="NiYd0etIWsIruV5Dij74-30" value="ASP.NET 7,&amp;nbsp;StackExchangeRedis 7, FluentValidation 11, MassTransit 7, AutoMapper 12, MediatR 11&lt;br&gt;&amp;nbsp;" style="text;html=1;strokeColor=none;fillColor=none;align=center;verticalAlign=middle;whiteSpace=wrap;rounded=0;fontSize=18;" vertex="1" parent="1">
          <mxGeometry x="889" y="1367" width="250" height="110" as="geometry" />
        </mxCell>
        <mxCell id="NiYd0etIWsIruV5Dij74-31" value="" style="rounded=0;whiteSpace=wrap;html=1;" vertex="1" parent="1">
          <mxGeometry x="1240" y="804.5" width="280" height="160" as="geometry" />
        </mxCell>
        <mxCell id="NiYd0etIWsIruV5Dij74-32" value="Docker Container" style="text;html=1;strokeColor=none;fillColor=none;align=center;verticalAlign=middle;whiteSpace=wrap;rounded=0;fontSize=22;" vertex="1" parent="1">
          <mxGeometry x="1275" y="809.5" width="210" height="30" as="geometry" />
        </mxCell>
        <mxCell id="NiYd0etIWsIruV5Dij74-36" value="" style="rounded=0;whiteSpace=wrap;html=1;" vertex="1" parent="1">
          <mxGeometry x="1300" y="1342" width="280" height="160" as="geometry" />
        </mxCell>
        <mxCell id="NiYd0etIWsIruV5Dij74-37" value="Docker Container" style="text;html=1;strokeColor=none;fillColor=none;align=center;verticalAlign=middle;whiteSpace=wrap;rounded=0;fontSize=22;" vertex="1" parent="1">
          <mxGeometry x="1335" y="1352" width="210" height="30" as="geometry" />
        </mxCell>
        <mxCell id="NiYd0etIWsIruV5Dij74-41" value="" style="rounded=0;whiteSpace=wrap;html=1;" vertex="1" parent="1">
          <mxGeometry x="1830" y="740" width="340" height="331" as="geometry" />
        </mxCell>
        <mxCell id="NiYd0etIWsIruV5Dij74-42" value="Docker Container" style="text;html=1;strokeColor=none;fillColor=none;align=center;verticalAlign=middle;whiteSpace=wrap;rounded=0;fontSize=22;" vertex="1" parent="1">
          <mxGeometry x="1895" y="750" width="210" height="30" as="geometry" />
        </mxCell>
        <mxCell id="NiYd0etIWsIruV5Dij74-43" value="" style="rounded=0;whiteSpace=wrap;html=1;" vertex="1" parent="1">
          <mxGeometry x="1840" y="795" width="320" height="266" as="geometry" />
        </mxCell>
        <mxCell id="NiYd0etIWsIruV5Dij74-44" value="Web Server Kestrel" style="text;html=1;strokeColor=none;fillColor=none;align=center;verticalAlign=middle;whiteSpace=wrap;rounded=0;fontSize=22;" vertex="1" parent="1">
          <mxGeometry x="1895" y="800" width="210" height="30" as="geometry" />
        </mxCell>
        <mxCell id="NiYd0etIWsIruV5Dij74-45" value="" style="rounded=0;whiteSpace=wrap;html=1;" vertex="1" parent="1">
          <mxGeometry x="1850" y="846" width="300" height="205" as="geometry" />
        </mxCell>
        <mxCell id="NiYd0etIWsIruV5Dij74-46" value="API" style="text;html=1;strokeColor=none;fillColor=none;align=center;verticalAlign=middle;whiteSpace=wrap;rounded=0;fontSize=22;" vertex="1" parent="1">
          <mxGeometry x="1925" y="856" width="150" height="30" as="geometry" />
        </mxCell>
        <mxCell id="NiYd0etIWsIruV5Dij74-47" value="Folks.NotificationService.Api" style="text;html=1;strokeColor=none;fillColor=none;align=center;verticalAlign=middle;whiteSpace=wrap;rounded=0;fontSize=22;" vertex="1" parent="1">
          <mxGeometry x="1930" y="893" width="150" height="30" as="geometry" />
        </mxCell>
        <mxCell id="NiYd0etIWsIruV5Dij74-48" value="ASP.NET 7, FluentValidation 11, MassTransit 7, AutoMapper 12, MediatR 11,&amp;nbsp;FirebaseAdmin 2.4.0&lt;br&gt;&amp;nbsp;" style="text;html=1;strokeColor=none;fillColor=none;align=center;verticalAlign=middle;whiteSpace=wrap;rounded=0;fontSize=18;" vertex="1" parent="1">
          <mxGeometry x="1874" y="936" width="250" height="110" as="geometry" />
        </mxCell>
        <mxCell id="NiYd0etIWsIruV5Dij74-49" value="&lt;font style=&quot;font-size: 22px;&quot;&gt;FCM&lt;/font&gt;" style="rounded=0;whiteSpace=wrap;html=1;" vertex="1" parent="1">
          <mxGeometry x="2300" y="831.5" width="180" height="133" as="geometry" />
        </mxCell>
        <mxCell id="NiYd0etIWsIruV5Dij74-52" value="" style="shape=cylinder3;whiteSpace=wrap;html=1;boundedLbl=1;backgroundOutline=1;size=15;" vertex="1" parent="1">
          <mxGeometry x="1240" y="100" width="220" height="110" as="geometry" />
        </mxCell>
        <mxCell id="E3wQsjzNkzeeDNMALOdF-12" value="PostgreSQL 16" style="text;html=1;strokeColor=none;fillColor=none;align=center;verticalAlign=middle;whiteSpace=wrap;rounded=0;fontSize=18;" parent="1" vertex="1">
          <mxGeometry x="1240" y="170" width="210" height="30" as="geometry" />
        </mxCell>
        <mxCell id="E3wQsjzNkzeeDNMALOdF-13" value="Database" style="text;html=1;strokeColor=none;fillColor=none;align=center;verticalAlign=middle;whiteSpace=wrap;rounded=0;fontSize=22;" parent="1" vertex="1">
          <mxGeometry x="1240" y="135" width="210" height="30" as="geometry" />
        </mxCell>
        <mxCell id="NiYd0etIWsIruV5Dij74-53" value="" style="shape=cylinder3;whiteSpace=wrap;html=1;boundedLbl=1;backgroundOutline=1;size=15;" vertex="1" parent="1">
          <mxGeometry x="1270" y="846.5" width="220" height="110" as="geometry" />
        </mxCell>
        <mxCell id="NiYd0etIWsIruV5Dij74-34" value="PostgreSQL 16" style="text;html=1;strokeColor=none;fillColor=none;align=center;verticalAlign=middle;whiteSpace=wrap;rounded=0;fontSize=18;" vertex="1" parent="1">
          <mxGeometry x="1270" y="919.5" width="210" height="30" as="geometry" />
        </mxCell>
        <mxCell id="NiYd0etIWsIruV5Dij74-35" value="Database" style="text;html=1;strokeColor=none;fillColor=none;align=center;verticalAlign=middle;whiteSpace=wrap;rounded=0;fontSize=22;" vertex="1" parent="1">
          <mxGeometry x="1270" y="878.5" width="210" height="30" as="geometry" />
        </mxCell>
        <mxCell id="NiYd0etIWsIruV5Dij74-54" value="" style="shape=cylinder3;whiteSpace=wrap;html=1;boundedLbl=1;backgroundOutline=1;size=15;" vertex="1" parent="1">
          <mxGeometry x="1330" y="1383" width="220" height="110" as="geometry" />
        </mxCell>
        <mxCell id="NiYd0etIWsIruV5Dij74-39" value="Redis 7.2.2" style="text;html=1;strokeColor=none;fillColor=none;align=center;verticalAlign=middle;whiteSpace=wrap;rounded=0;fontSize=18;" vertex="1" parent="1">
          <mxGeometry x="1330" y="1457" width="210" height="30" as="geometry" />
        </mxCell>
        <mxCell id="NiYd0etIWsIruV5Dij74-40" value="Cache" style="text;html=1;strokeColor=none;fillColor=none;align=center;verticalAlign=middle;whiteSpace=wrap;rounded=0;fontSize=22;" vertex="1" parent="1">
          <mxGeometry x="1330" y="1418" width="210" height="30" as="geometry" />
        </mxCell>
        <mxCell id="NiYd0etIWsIruV5Dij74-58" value="" style="rounded=0;whiteSpace=wrap;html=1;" vertex="1" parent="1">
          <mxGeometry x="1300" y="330" width="280" height="160" as="geometry" />
        </mxCell>
        <mxCell id="NiYd0etIWsIruV5Dij74-59" value="Docker Container" style="text;html=1;strokeColor=none;fillColor=none;align=center;verticalAlign=middle;whiteSpace=wrap;rounded=0;fontSize=22;" vertex="1" parent="1">
          <mxGeometry x="1335" y="340" width="210" height="30" as="geometry" />
        </mxCell>
        <mxCell id="NiYd0etIWsIruV5Dij74-60" value="" style="shape=cylinder3;whiteSpace=wrap;html=1;boundedLbl=1;backgroundOutline=1;size=15;" vertex="1" parent="1">
          <mxGeometry x="1330" y="371" width="220" height="110" as="geometry" />
        </mxCell>
        <mxCell id="NiYd0etIWsIruV5Dij74-61" value="Redis 7.2.2" style="text;html=1;strokeColor=none;fillColor=none;align=center;verticalAlign=middle;whiteSpace=wrap;rounded=0;fontSize=18;" vertex="1" parent="1">
          <mxGeometry x="1330" y="445" width="210" height="30" as="geometry" />
        </mxCell>
        <mxCell id="NiYd0etIWsIruV5Dij74-62" value="Cache" style="text;html=1;strokeColor=none;fillColor=none;align=center;verticalAlign=middle;whiteSpace=wrap;rounded=0;fontSize=22;" vertex="1" parent="1">
          <mxGeometry x="1330" y="406" width="210" height="30" as="geometry" />
        </mxCell>
        <mxCell id="NiYd0etIWsIruV5Dij74-63" value="&lt;font style=&quot;font-size: 22px;&quot;&gt;RabbitMQ 3.12&lt;/font&gt;" style="shape=cylinder3;whiteSpace=wrap;html=1;boundedLbl=1;backgroundOutline=1;size=15;" vertex="1" parent="1">
          <mxGeometry x="1629" y="230" width="121" height="1230" as="geometry" />
        </mxCell>
        <mxCell id="NiYd0etIWsIruV5Dij74-73" value="&lt;font style=&quot;font-size: 18px;&quot;&gt;Full Duplex (WebSocket)&lt;/font&gt;" style="text;html=1;strokeColor=none;fillColor=none;align=center;verticalAlign=middle;whiteSpace=wrap;rounded=0;fontSize=18;" vertex="1" parent="1">
          <mxGeometry x="633" y="110" width="120" height="30" as="geometry" />
        </mxCell>
        <mxCell id="NiYd0etIWsIruV5Dij74-74" value="" style="endArrow=classic;startArrow=classic;html=1;rounded=0;entryX=0;entryY=0.312;entryDx=0;entryDy=0;entryPerimeter=0;exitX=1;exitY=0.021;exitDx=0;exitDy=0;exitPerimeter=0;" edge="1" parent="1" source="zmb7tuKz2PFm1udy3gRj-13" target="E3wQsjzNkzeeDNMALOdF-14">
          <mxGeometry width="50" height="50" relative="1" as="geometry">
            <mxPoint x="650" y="210" as="sourcePoint" />
            <mxPoint x="700" y="160" as="targetPoint" />
          </mxGeometry>
        </mxCell>
        <mxCell id="NiYd0etIWsIruV5Dij74-75" value="" style="endArrow=classic;html=1;rounded=0;entryX=0.001;entryY=0.299;entryDx=0;entryDy=0;exitX=1.001;exitY=0.3;exitDx=0;exitDy=0;exitPerimeter=0;entryPerimeter=0;" edge="1" parent="1" source="zmb7tuKz2PFm1udy3gRj-13" target="NiYd0etIWsIruV5Dij74-15">
          <mxGeometry width="50" height="50" relative="1" as="geometry">
            <mxPoint x="670" y="510" as="sourcePoint" />
            <mxPoint x="720" y="460" as="targetPoint" />
          </mxGeometry>
        </mxCell>
        <mxCell id="NiYd0etIWsIruV5Dij74-76" value="" style="endArrow=classic;html=1;rounded=0;entryX=1;entryY=0.315;entryDx=0;entryDy=0;entryPerimeter=0;exitX=0;exitY=0.363;exitDx=0;exitDy=0;exitPerimeter=0;" edge="1" parent="1" source="NiYd0etIWsIruV5Dij74-15" target="zmb7tuKz2PFm1udy3gRj-13">
          <mxGeometry width="50" height="50" relative="1" as="geometry">
            <mxPoint x="730" y="620" as="sourcePoint" />
            <mxPoint x="780" y="570" as="targetPoint" />
          </mxGeometry>
        </mxCell>
        <mxCell id="NiYd0etIWsIruV5Dij74-77" value="" style="endArrow=classic;html=1;rounded=0;entryX=1;entryY=0.323;entryDx=0;entryDy=0;entryPerimeter=0;exitX=0.001;exitY=0.393;exitDx=0;exitDy=0;exitPerimeter=0;" edge="1" parent="1" source="NiYd0etIWsIruV5Dij74-15" target="zmb7tuKz2PFm1udy3gRj-13">
          <mxGeometry width="50" height="50" relative="1" as="geometry">
            <mxPoint x="897" y="557" as="sourcePoint" />
            <mxPoint x="610" y="555" as="targetPoint" />
          </mxGeometry>
        </mxCell>
        <mxCell id="NiYd0etIWsIruV5Dij74-78" value="" style="endArrow=classic;html=1;rounded=0;entryX=1.001;entryY=0.331;entryDx=0;entryDy=0;entryPerimeter=0;exitX=-0.001;exitY=0.428;exitDx=0;exitDy=0;exitPerimeter=0;" edge="1" parent="1" source="NiYd0etIWsIruV5Dij74-15" target="zmb7tuKz2PFm1udy3gRj-13">
          <mxGeometry width="50" height="50" relative="1" as="geometry">
            <mxPoint x="920" y="561" as="sourcePoint" />
            <mxPoint x="631" y="560" as="targetPoint" />
          </mxGeometry>
        </mxCell>
        <mxCell id="NiYd0etIWsIruV5Dij74-79" value="&lt;font style=&quot;font-size: 18px;&quot;&gt;Stream (WebSocket + WebRTC)&lt;/font&gt;" style="text;html=1;strokeColor=none;fillColor=none;align=center;verticalAlign=middle;whiteSpace=wrap;rounded=0;fontSize=18;" vertex="1" parent="1">
          <mxGeometry x="745" y="473" width="120" height="30" as="geometry" />
        </mxCell>
        <mxCell id="NiYd0etIWsIruV5Dij74-80" value="" style="endArrow=classic;html=1;rounded=0;entryX=0;entryY=0.5;entryDx=0;entryDy=0;exitX=0.999;exitY=0.623;exitDx=0;exitDy=0;exitPerimeter=0;" edge="1" parent="1" source="zmb7tuKz2PFm1udy3gRj-13" target="E3wQsjzNkzeeDNMALOdF-1">
          <mxGeometry width="50" height="50" relative="1" as="geometry">
            <mxPoint x="650" y="960" as="sourcePoint" />
            <mxPoint x="700" y="910" as="targetPoint" />
          </mxGeometry>
        </mxCell>
        <mxCell id="NiYd0etIWsIruV5Dij74-82" value="&lt;font style=&quot;font-size: 18px;&quot;&gt;Half Duplex&lt;/font&gt;" style="text;html=1;strokeColor=none;fillColor=none;align=center;verticalAlign=middle;whiteSpace=wrap;rounded=0;fontSize=18;" vertex="1" parent="1">
          <mxGeometry x="633" y="919.5" width="120" height="30" as="geometry" />
        </mxCell>
        <mxCell id="NiYd0etIWsIruV5Dij74-83" value="" style="endArrow=classic;html=1;rounded=0;entryX=0.999;entryY=0.631;entryDx=0;entryDy=0;entryPerimeter=0;exitX=-0.001;exitY=0.539;exitDx=0;exitDy=0;exitPerimeter=0;" edge="1" parent="1" source="E3wQsjzNkzeeDNMALOdF-1" target="zmb7tuKz2PFm1udy3gRj-13">
          <mxGeometry width="50" height="50" relative="1" as="geometry">
            <mxPoint x="660" y="1030" as="sourcePoint" />
            <mxPoint x="710" y="980" as="targetPoint" />
          </mxGeometry>
        </mxCell>
        <mxCell id="NiYd0etIWsIruV5Dij74-84" value="" style="endArrow=classic;html=1;rounded=0;entryX=0;entryY=0.5;entryDx=0;entryDy=0;exitX=0.999;exitY=0.278;exitDx=0;exitDy=0;exitPerimeter=0;" edge="1" parent="1" source="E3wQsjzNkzeeDNMALOdF-1" target="NiYd0etIWsIruV5Dij74-31">
          <mxGeometry width="50" height="50" relative="1" as="geometry">
            <mxPoint x="1160" y="930" as="sourcePoint" />
            <mxPoint x="1210" y="880" as="targetPoint" />
          </mxGeometry>
        </mxCell>
        <mxCell id="NiYd0etIWsIruV5Dij74-85" value="" style="endArrow=classic;html=1;rounded=0;entryX=0.999;entryY=0.312;entryDx=0;entryDy=0;entryPerimeter=0;exitX=0;exitY=0.562;exitDx=0;exitDy=0;exitPerimeter=0;" edge="1" parent="1" source="NiYd0etIWsIruV5Dij74-31" target="E3wQsjzNkzeeDNMALOdF-1">
          <mxGeometry width="50" height="50" relative="1" as="geometry">
            <mxPoint x="1130" y="950" as="sourcePoint" />
            <mxPoint x="1180" y="900" as="targetPoint" />
          </mxGeometry>
        </mxCell>
        <mxCell id="NiYd0etIWsIruV5Dij74-86" value="&lt;font style=&quot;font-size: 18px;&quot;&gt;Half Duplex&lt;/font&gt;" style="text;html=1;strokeColor=none;fillColor=none;align=center;verticalAlign=middle;whiteSpace=wrap;rounded=0;fontSize=18;" vertex="1" parent="1">
          <mxGeometry x="1110" y="856" width="120" height="30" as="geometry" />
        </mxCell>
        <mxCell id="NiYd0etIWsIruV5Dij74-87" value="" style="endArrow=classic;html=1;rounded=0;entryX=0.5;entryY=1;entryDx=0;entryDy=0;exitX=0.998;exitY=0.377;exitDx=0;exitDy=0;exitPerimeter=0;edgeStyle=orthogonalEdgeStyle;" edge="1" parent="1" source="NiYd0etIWsIruV5Dij74-15" target="NiYd0etIWsIruV5Dij74-58">
          <mxGeometry width="50" height="50" relative="1" as="geometry">
            <mxPoint x="1340" y="600" as="sourcePoint" />
            <mxPoint x="1390" y="550" as="targetPoint" />
          </mxGeometry>
        </mxCell>
        <mxCell id="NiYd0etIWsIruV5Dij74-88" value="" style="endArrow=classic;html=1;rounded=0;entryX=1;entryY=0.41;entryDx=0;entryDy=0;entryPerimeter=0;exitX=0.549;exitY=1.002;exitDx=0;exitDy=0;exitPerimeter=0;edgeStyle=orthogonalEdgeStyle;" edge="1" parent="1" source="NiYd0etIWsIruV5Dij74-58" target="NiYd0etIWsIruV5Dij74-15">
          <mxGeometry width="50" height="50" relative="1" as="geometry">
            <mxPoint x="1290" y="610" as="sourcePoint" />
            <mxPoint x="1340" y="560" as="targetPoint" />
          </mxGeometry>
        </mxCell>
        <mxCell id="NiYd0etIWsIruV5Dij74-89" value="&lt;font style=&quot;font-size: 18px;&quot;&gt;Half Duplex&lt;/font&gt;" style="text;html=1;strokeColor=none;fillColor=none;align=center;verticalAlign=middle;whiteSpace=wrap;rounded=0;fontSize=18;" vertex="1" parent="1">
          <mxGeometry x="1285" y="515" width="120" height="30" as="geometry" />
        </mxCell>
        <mxCell id="NiYd0etIWsIruV5Dij74-90" value="" style="endArrow=classic;html=1;rounded=0;entryX=0;entryY=0.5;entryDx=0;entryDy=0;exitX=1.001;exitY=0.265;exitDx=0;exitDy=0;exitPerimeter=0;" edge="1" parent="1" source="E3wQsjzNkzeeDNMALOdF-14" target="E3wQsjzNkzeeDNMALOdF-9">
          <mxGeometry width="50" height="50" relative="1" as="geometry">
            <mxPoint x="1140" y="170" as="sourcePoint" />
            <mxPoint x="1190" y="120" as="targetPoint" />
          </mxGeometry>
        </mxCell>
        <mxCell id="NiYd0etIWsIruV5Dij74-91" value="" style="endArrow=classic;html=1;rounded=0;entryX=1;entryY=0.289;entryDx=0;entryDy=0;entryPerimeter=0;exitX=-0.002;exitY=0.54;exitDx=0;exitDy=0;exitPerimeter=0;" edge="1" parent="1" source="E3wQsjzNkzeeDNMALOdF-9" target="E3wQsjzNkzeeDNMALOdF-14">
          <mxGeometry width="50" height="50" relative="1" as="geometry">
            <mxPoint x="1120" y="190" as="sourcePoint" />
            <mxPoint x="1170" y="140" as="targetPoint" />
          </mxGeometry>
        </mxCell>
        <mxCell id="NiYd0etIWsIruV5Dij74-92" value="&lt;font style=&quot;font-size: 18px;&quot;&gt;Half Duplex&lt;/font&gt;" style="text;html=1;strokeColor=none;fillColor=none;align=center;verticalAlign=middle;whiteSpace=wrap;rounded=0;fontSize=18;" vertex="1" parent="1">
          <mxGeometry x="1095" y="105" width="120" height="30" as="geometry" />
        </mxCell>
        <mxCell id="NiYd0etIWsIruV5Dij74-93" value="" style="endArrow=classic;html=1;rounded=0;entryX=0;entryY=0.5;entryDx=0;entryDy=0;exitX=1;exitY=0.757;exitDx=0;exitDy=0;exitPerimeter=0;" edge="1" parent="1" source="NiYd0etIWsIruV5Dij74-23" target="NiYd0etIWsIruV5Dij74-36">
          <mxGeometry width="50" height="50" relative="1" as="geometry">
            <mxPoint x="1200" y="1440" as="sourcePoint" />
            <mxPoint x="1250" y="1390" as="targetPoint" />
          </mxGeometry>
        </mxCell>
        <mxCell id="NiYd0etIWsIruV5Dij74-94" value="" style="endArrow=classic;html=1;rounded=0;entryX=1;entryY=0.781;entryDx=0;entryDy=0;entryPerimeter=0;exitX=0.001;exitY=0.546;exitDx=0;exitDy=0;exitPerimeter=0;" edge="1" parent="1" source="NiYd0etIWsIruV5Dij74-36" target="NiYd0etIWsIruV5Dij74-23">
          <mxGeometry width="50" height="50" relative="1" as="geometry">
            <mxPoint x="1200" y="1480" as="sourcePoint" />
            <mxPoint x="1250" y="1430" as="targetPoint" />
          </mxGeometry>
        </mxCell>
        <mxCell id="NiYd0etIWsIruV5Dij74-95" value="&lt;font style=&quot;font-size: 18px;&quot;&gt;Half Duplex&lt;/font&gt;" style="text;html=1;strokeColor=none;fillColor=none;align=center;verticalAlign=middle;whiteSpace=wrap;rounded=0;fontSize=18;" vertex="1" parent="1">
          <mxGeometry x="1185" y="1391" width="120" height="30" as="geometry" />
        </mxCell>
        <mxCell id="NiYd0etIWsIruV5Dij74-96" value="" style="endArrow=classic;html=1;rounded=0;entryX=0;entryY=0.5;entryDx=0;entryDy=0;exitX=0.999;exitY=0.473;exitDx=0;exitDy=0;exitPerimeter=0;" edge="1" parent="1" source="NiYd0etIWsIruV5Dij74-41" target="NiYd0etIWsIruV5Dij74-49">
          <mxGeometry width="50" height="50" relative="1" as="geometry">
            <mxPoint x="2210" y="940" as="sourcePoint" />
            <mxPoint x="2260" y="890" as="targetPoint" />
          </mxGeometry>
        </mxCell>
        <mxCell id="NiYd0etIWsIruV5Dij74-97" value="&lt;font style=&quot;font-size: 18px;&quot;&gt;Simplex&lt;/font&gt;" style="text;html=1;strokeColor=none;fillColor=none;align=center;verticalAlign=middle;whiteSpace=wrap;rounded=0;fontSize=18;" vertex="1" parent="1">
          <mxGeometry x="2180" y="869.5" width="120" height="30" as="geometry" />
        </mxCell>
        <mxCell id="NiYd0etIWsIruV5Dij74-98" value="" style="endArrow=classic;html=1;rounded=0;entryX=0;entryY=0.25;entryDx=0;entryDy=0;exitX=0;exitY=0.75;exitDx=0;exitDy=0;edgeStyle=orthogonalEdgeStyle;" edge="1" parent="1" source="E3wQsjzNkzeeDNMALOdF-14" target="E3wQsjzNkzeeDNMALOdF-1">
          <mxGeometry width="50" height="50" relative="1" as="geometry">
            <mxPoint x="730" y="450" as="sourcePoint" />
            <mxPoint x="780" y="400" as="targetPoint" />
            <Array as="points">
              <mxPoint x="720" y="287" />
              <mxPoint x="720" y="876" />
            </Array>
          </mxGeometry>
        </mxCell>
        <mxCell id="NiYd0etIWsIruV5Dij74-99" value="" style="endArrow=classic;html=1;rounded=0;edgeStyle=orthogonalEdgeStyle;entryX=0;entryY=0.707;entryDx=0;entryDy=0;entryPerimeter=0;exitX=0;exitY=0.307;exitDx=0;exitDy=0;exitPerimeter=0;" edge="1" parent="1" source="E3wQsjzNkzeeDNMALOdF-1" target="E3wQsjzNkzeeDNMALOdF-14">
          <mxGeometry width="50" height="50" relative="1" as="geometry">
            <mxPoint x="760" y="893" as="sourcePoint" />
            <mxPoint x="760" y="273" as="targetPoint" />
            <Array as="points">
              <mxPoint x="708" y="893" />
              <mxPoint x="708" y="273" />
            </Array>
          </mxGeometry>
        </mxCell>
        <mxCell id="NiYd0etIWsIruV5Dij74-100" value="&lt;font style=&quot;font-size: 18px;&quot;&gt;Half Duplex&lt;/font&gt;" style="text;html=1;strokeColor=none;fillColor=none;align=center;verticalAlign=middle;whiteSpace=wrap;rounded=0;fontSize=18;rotation=-90;" vertex="1" parent="1">
          <mxGeometry x="633" y="365" width="120" height="30" as="geometry" />
        </mxCell>
        <mxCell id="NiYd0etIWsIruV5Dij74-101" value="" style="endArrow=classic;html=1;rounded=0;entryX=0.25;entryY=0;entryDx=0;entryDy=0;exitX=0;exitY=0.75;exitDx=0;exitDy=0;edgeStyle=orthogonalEdgeStyle;" edge="1" parent="1" source="NiYd0etIWsIruV5Dij74-15" target="E3wQsjzNkzeeDNMALOdF-1">
          <mxGeometry width="50" height="50" relative="1" as="geometry">
            <mxPoint x="830" y="720" as="sourcePoint" />
            <mxPoint x="880" y="670" as="targetPoint" />
          </mxGeometry>
        </mxCell>
        <mxCell id="NiYd0etIWsIruV5Dij74-102" value="" style="endArrow=classic;html=1;rounded=0;exitX=0.209;exitY=-0.001;exitDx=0;exitDy=0;exitPerimeter=0;entryX=-0.001;entryY=0.703;entryDx=0;entryDy=0;entryPerimeter=0;edgeStyle=orthogonalEdgeStyle;" edge="1" parent="1" source="E3wQsjzNkzeeDNMALOdF-1" target="NiYd0etIWsIruV5Dij74-15">
          <mxGeometry width="50" height="50" relative="1" as="geometry">
            <mxPoint x="780" y="770" as="sourcePoint" />
            <mxPoint x="830" y="720" as="targetPoint" />
          </mxGeometry>
        </mxCell>
        <mxCell id="NiYd0etIWsIruV5Dij74-103" value="&lt;font style=&quot;font-size: 18px;&quot;&gt;Half Duplex&lt;/font&gt;" style="text;html=1;strokeColor=none;fillColor=none;align=center;verticalAlign=middle;whiteSpace=wrap;rounded=0;fontSize=18;rotation=-90;" vertex="1" parent="1">
          <mxGeometry x="757" y="705" width="120" height="30" as="geometry" />
        </mxCell>
        <mxCell id="NiYd0etIWsIruV5Dij74-104" value="" style="endArrow=classic;html=1;rounded=0;entryX=0;entryY=0.25;entryDx=0;entryDy=0;exitX=0;exitY=0.75;exitDx=0;exitDy=0;edgeStyle=orthogonalEdgeStyle;" edge="1" parent="1" source="E3wQsjzNkzeeDNMALOdF-1" target="NiYd0etIWsIruV5Dij74-23">
          <mxGeometry width="50" height="50" relative="1" as="geometry">
            <mxPoint x="730" y="1210" as="sourcePoint" />
            <mxPoint x="780" y="1160" as="targetPoint" />
            <Array as="points">
              <mxPoint x="740" y="1021" />
              <mxPoint x="740" y="1254" />
            </Array>
          </mxGeometry>
        </mxCell>
        <mxCell id="NiYd0etIWsIruV5Dij74-105" value="" style="endArrow=classic;html=1;rounded=0;exitX=0;exitY=0.287;exitDx=0;exitDy=0;exitPerimeter=0;entryX=0;entryY=0.703;entryDx=0;entryDy=0;entryPerimeter=0;edgeStyle=orthogonalEdgeStyle;" edge="1" parent="1" source="NiYd0etIWsIruV5Dij74-23" target="E3wQsjzNkzeeDNMALOdF-1">
          <mxGeometry width="50" height="50" relative="1" as="geometry">
            <mxPoint x="650" y="1250" as="sourcePoint" />
            <mxPoint x="700" y="1200" as="targetPoint" />
            <Array as="points">
              <mxPoint x="845" y="1267" />
              <mxPoint x="720" y="1267" />
              <mxPoint x="720" y="1007" />
            </Array>
          </mxGeometry>
        </mxCell>
        <mxCell id="NiYd0etIWsIruV5Dij74-106" value="&lt;font style=&quot;font-size: 18px;&quot;&gt;Half Duplex&lt;/font&gt;" style="text;html=1;strokeColor=none;fillColor=none;align=center;verticalAlign=middle;whiteSpace=wrap;rounded=0;fontSize=18;rotation=-90;" vertex="1" parent="1">
          <mxGeometry x="645" y="1110" width="120" height="30" as="geometry" />
        </mxCell>
        <mxCell id="NiYd0etIWsIruV5Dij74-108" value="" style="endArrow=classic;html=1;rounded=0;entryX=0;entryY=0.5;entryDx=0;entryDy=0;exitX=0.997;exitY=0.915;exitDx=0;exitDy=0;exitPerimeter=0;" edge="1" parent="1" source="zmb7tuKz2PFm1udy3gRj-13" target="NiYd0etIWsIruV5Dij74-23">
          <mxGeometry width="50" height="50" relative="1" as="geometry">
            <mxPoint x="670" y="1370" as="sourcePoint" />
            <mxPoint x="720" y="1320" as="targetPoint" />
          </mxGeometry>
        </mxCell>
        <mxCell id="NiYd0etIWsIruV5Dij74-109" value="" style="endArrow=classic;html=1;rounded=0;entryX=1.001;entryY=0.94;entryDx=0;entryDy=0;entryPerimeter=0;exitX=0.002;exitY=0.602;exitDx=0;exitDy=0;exitPerimeter=0;" edge="1" parent="1" source="NiYd0etIWsIruV5Dij74-23" target="zmb7tuKz2PFm1udy3gRj-13">
          <mxGeometry width="50" height="50" relative="1" as="geometry">
            <mxPoint x="670" y="1410" as="sourcePoint" />
            <mxPoint x="720" y="1360" as="targetPoint" />
          </mxGeometry>
        </mxCell>
        <mxCell id="NiYd0etIWsIruV5Dij74-110" value="" style="endArrow=classic;html=1;rounded=0;entryX=1.001;entryY=0.957;entryDx=0;entryDy=0;entryPerimeter=0;exitX=-0.001;exitY=0.67;exitDx=0;exitDy=0;exitPerimeter=0;" edge="1" parent="1" source="NiYd0etIWsIruV5Dij74-23" target="zmb7tuKz2PFm1udy3gRj-13">
          <mxGeometry width="50" height="50" relative="1" as="geometry">
            <mxPoint x="856" y="1380" as="sourcePoint" />
            <mxPoint x="632" y="1380" as="targetPoint" />
          </mxGeometry>
        </mxCell>
        <mxCell id="NiYd0etIWsIruV5Dij74-111" value="&lt;font style=&quot;font-size: 18px;&quot;&gt;SSE&lt;/font&gt;" style="text;html=1;strokeColor=none;fillColor=none;align=center;verticalAlign=middle;whiteSpace=wrap;rounded=0;fontSize=18;" vertex="1" parent="1">
          <mxGeometry x="663" y="1310" width="120" height="30" as="geometry" />
        </mxCell>
        <mxCell id="NiYd0etIWsIruV5Dij74-112" value="&lt;font style=&quot;font-size: 18px;&quot;&gt;Events&lt;/font&gt;" style="text;html=1;strokeColor=none;fillColor=none;align=center;verticalAlign=middle;whiteSpace=wrap;rounded=0;fontSize=18;" vertex="1" parent="1">
          <mxGeometry x="663" y="1340" width="120" height="30" as="geometry" />
        </mxCell>
        <mxCell id="NiYd0etIWsIruV5Dij74-113" value="" style="endArrow=classic;startArrow=classic;html=1;rounded=0;entryX=-0.008;entryY=0.049;entryDx=0;entryDy=0;entryPerimeter=0;exitX=1;exitY=0.75;exitDx=0;exitDy=0;" edge="1" parent="1" source="E3wQsjzNkzeeDNMALOdF-14" target="NiYd0etIWsIruV5Dij74-63">
          <mxGeometry width="50" height="50" relative="1" as="geometry">
            <mxPoint x="1200" y="330" as="sourcePoint" />
            <mxPoint x="1250" y="280" as="targetPoint" />
          </mxGeometry>
        </mxCell>
        <mxCell id="NiYd0etIWsIruV5Dij74-114" value="&lt;font style=&quot;font-size: 18px;&quot;&gt;Pub Sub&lt;/font&gt;" style="text;html=1;strokeColor=none;fillColor=none;align=center;verticalAlign=middle;whiteSpace=wrap;rounded=0;fontSize=18;" vertex="1" parent="1">
          <mxGeometry x="1290" y="260" width="120" height="30" as="geometry" />
        </mxCell>
        <mxCell id="NiYd0etIWsIruV5Dij74-115" value="" style="endArrow=classic;startArrow=classic;html=1;rounded=0;entryX=0.012;entryY=0.337;entryDx=0;entryDy=0;entryPerimeter=0;exitX=1.003;exitY=0.675;exitDx=0;exitDy=0;exitPerimeter=0;" edge="1" parent="1" source="NiYd0etIWsIruV5Dij74-15" target="NiYd0etIWsIruV5Dij74-63">
          <mxGeometry width="50" height="50" relative="1" as="geometry">
            <mxPoint x="1253" y="643" as="sourcePoint" />
            <mxPoint x="1778" y="646" as="targetPoint" />
          </mxGeometry>
        </mxCell>
        <mxCell id="NiYd0etIWsIruV5Dij74-116" value="&lt;font style=&quot;font-size: 18px;&quot;&gt;Pub Sub&lt;/font&gt;" style="text;html=1;strokeColor=none;fillColor=none;align=center;verticalAlign=middle;whiteSpace=wrap;rounded=0;fontSize=18;" vertex="1" parent="1">
          <mxGeometry x="1375" y="611" width="120" height="30" as="geometry" />
        </mxCell>
        <mxCell id="NiYd0etIWsIruV5Dij74-117" value="" style="endArrow=classic;startArrow=classic;html=1;rounded=0;entryX=0;entryY=0.5;entryDx=0;entryDy=0;exitX=0.996;exitY=0.548;exitDx=0;exitDy=0;exitPerimeter=0;" edge="1" parent="1" source="NiYd0etIWsIruV5Dij74-63" target="NiYd0etIWsIruV5Dij74-41">
          <mxGeometry width="50" height="50" relative="1" as="geometry">
            <mxPoint x="1770" y="930" as="sourcePoint" />
            <mxPoint x="1820" y="880" as="targetPoint" />
          </mxGeometry>
        </mxCell>
        <mxCell id="NiYd0etIWsIruV5Dij74-118" value="&lt;font style=&quot;font-size: 18px;&quot;&gt;Pub Sub&lt;/font&gt;" style="text;html=1;strokeColor=none;fillColor=none;align=center;verticalAlign=middle;whiteSpace=wrap;rounded=0;fontSize=18;" vertex="1" parent="1">
          <mxGeometry x="1750" y="873.5" width="80" height="30" as="geometry" />
        </mxCell>
        <mxCell id="NiYd0etIWsIruV5Dij74-119" value="" style="endArrow=none;html=1;rounded=0;entryX=1;entryY=0.25;entryDx=0;entryDy=0;edgeStyle=orthogonalEdgeStyle;exitX=1.003;exitY=0.967;exitDx=0;exitDy=0;exitPerimeter=0;endFill=0;startArrow=classic;startFill=1;" edge="1" parent="1" source="NiYd0etIWsIruV5Dij74-15" target="NiYd0etIWsIruV5Dij74-23">
          <mxGeometry width="50" height="50" relative="1" as="geometry">
            <mxPoint x="1252" y="698" as="sourcePoint" />
            <mxPoint x="1310" y="1160" as="targetPoint" />
            <Array as="points">
              <mxPoint x="1550" y="734" />
              <mxPoint x="1550" y="1254" />
            </Array>
          </mxGeometry>
        </mxCell>
        <mxCell id="NiYd0etIWsIruV5Dij74-120" value="" style="endArrow=none;html=1;rounded=0;entryX=1;entryY=0.896;entryDx=0;entryDy=0;entryPerimeter=0;exitX=1;exitY=0.329;exitDx=0;exitDy=0;exitPerimeter=0;edgeStyle=orthogonalEdgeStyle;startArrow=classic;startFill=1;endFill=0;" edge="1" parent="1" source="NiYd0etIWsIruV5Dij74-23" target="NiYd0etIWsIruV5Dij74-15">
          <mxGeometry width="50" height="50" relative="1" as="geometry">
            <mxPoint x="1190" y="790" as="sourcePoint" />
            <mxPoint x="1230" y="760" as="targetPoint" />
            <Array as="points">
              <mxPoint x="1580" y="1280" />
              <mxPoint x="1580" y="712" />
            </Array>
          </mxGeometry>
        </mxCell>
        <mxCell id="NiYd0etIWsIruV5Dij74-121" value="&lt;font style=&quot;font-size: 18px;&quot;&gt;Half Duplex&lt;/font&gt;" style="text;html=1;strokeColor=none;fillColor=none;align=center;verticalAlign=middle;whiteSpace=wrap;rounded=0;fontSize=18;rotation=-90;" vertex="1" parent="1">
          <mxGeometry x="1470" y="1093.5" width="120" height="30" as="geometry" />
        </mxCell>
        <mxCell id="NiYd0etIWsIruV5Dij74-122" value="" style="endArrow=classic;html=1;rounded=0;exitX=0.5;exitY=0;exitDx=0;exitDy=0;entryX=0.5;entryY=1;entryDx=0;entryDy=0;edgeStyle=orthogonalEdgeStyle;" edge="1" parent="1" source="E3wQsjzNkzeeDNMALOdF-14" target="NiYd0etIWsIruV5Dij74-23">
          <mxGeometry width="50" height="50" relative="1" as="geometry">
            <mxPoint x="1000" y="70" as="sourcePoint" />
            <mxPoint x="1050" y="20" as="targetPoint" />
            <Array as="points">
              <mxPoint x="933" y="20" />
              <mxPoint x="2510" y="20" />
              <mxPoint x="2510" y="1530" />
              <mxPoint x="1015" y="1530" />
            </Array>
          </mxGeometry>
        </mxCell>
        <mxCell id="NiYd0etIWsIruV5Dij74-123" value="" style="endArrow=classic;html=1;rounded=0;entryX=0.565;entryY=-0.004;entryDx=0;entryDy=0;entryPerimeter=0;exitX=0.537;exitY=0.999;exitDx=0;exitDy=0;exitPerimeter=0;edgeStyle=orthogonalEdgeStyle;" edge="1" parent="1" source="NiYd0etIWsIruV5Dij74-23" target="E3wQsjzNkzeeDNMALOdF-14">
          <mxGeometry width="50" height="50" relative="1" as="geometry">
            <mxPoint x="1540" y="160" as="sourcePoint" />
            <mxPoint x="1590" y="110" as="targetPoint" />
            <Array as="points">
              <mxPoint x="1028" y="1520" />
              <mxPoint x="2500" y="1520" />
              <mxPoint x="2500" y="30" />
              <mxPoint x="955" y="30" />
            </Array>
          </mxGeometry>
        </mxCell>
        <mxCell id="NiYd0etIWsIruV5Dij74-124" value="&lt;font style=&quot;font-size: 18px;&quot;&gt;Half Duplex&lt;/font&gt;" style="text;html=1;strokeColor=none;fillColor=none;align=center;verticalAlign=middle;whiteSpace=wrap;rounded=0;fontSize=18;" vertex="1" parent="1">
          <mxGeometry x="1710" y="30" width="120" height="30" as="geometry" />
        </mxCell>
      </root>
    </mxGraphModel>
  </diagram>
</mxfile>
